<?xml version="1.0" encoding="utf-8"?>
<!-- Generator: Adobe Illustrator 27.9.0, SVG Export Plug-In . SVG Version: 6.00 Build 0)  -->
<svg version="1.1" xmlns="http://www.w3.org/2000/svg" xmlns:xlink="http://www.w3.org/1999/xlink" x="0px" y="0px"
	 viewBox="0 0 64 64" style="enable-background:new 0 0 64 64;" xml:space="preserve">
<style type="text/css">
	.st0{fill:#FF0900;}
	.st1{fill:#F46600;}
	.st2{fill:#E0643E;}
</style>
<g id="Layer_2">
	<rect y="0" width="64" height="64"/>
</g>
<g id="Layer_1">
	<g>
		<g>
			<g>
				<path class="st0" d="M37.21,30.36h-3.46V16.18h1.73c2.56,0,4.78,0,6.11-0.36c1.04-0.28,1.15-0.62,1.15-1.31
					c0-0.64-0.07-1.46-0.38-1.77c-0.65-0.64-3.13-0.62-6.27-0.6c-0.74,0.01-1.5,0.01-2.34,0.01V8.69c0.82,0,1.58-0.01,2.31-0.01
					c4.4-0.04,7.06-0.06,8.73,1.6c1.26,1.25,1.41,3.01,1.41,4.23c0,1.66-0.64,3.81-3.69,4.64c-1.41,0.39-3.17,0.47-5.3,0.48V30.36z"
					/>
			</g>
		</g>
		<g>
			<polygon class="st1" points="38.7,30.36 40.54,30.36 40.54,28.26 42.07,30.36 44.36,30.36 38.7,22.63 			"/>
		</g>
		<g>
			<path class="st0" d="M46.58,5.7c1.84,1.44,2.78,3.8,2.78,7.01c0,2.92-0.83,5.17-2.45,6.7c-1.21,1.13-2.45,1.42-2.46,1.42
				l-0.5,0.11l6.46,9.43h0.84l-6.18-9.01c0.52-0.19,1.4-0.6,2.28-1.42c1.23-1.14,2.7-3.32,2.7-7.23c0-4.3-1.67-6.5-3.07-7.58
				c-1.53-1.18-3.06-1.33-3.12-1.33l-10.11,0v0.69h10.06C43.95,4.5,45.28,4.68,46.58,5.7z"/>
			<path class="st0" d="M51.75,30.62h-1.48l-6.76-9.86l0.89-0.19c0.01,0,1.19-0.28,2.33-1.36c1.57-1.47,2.37-3.66,2.37-6.5
				c0-3.13-0.9-5.42-2.67-6.8l0,0c-1.21-0.95-2.43-1.13-2.63-1.15H33.49V3.53l10.4,0c0.07,0.01,1.66,0.15,3.26,1.38
				c1.45,1.12,3.18,3.38,3.18,7.79c0,4.01-1.52,6.25-2.79,7.42c-0.74,0.69-1.49,1.1-2.05,1.34L51.75,30.62z M50.55,30.09h0.2
				l-6.09-8.87l0.32-0.12c0.54-0.2,1.36-0.6,2.19-1.36c1.19-1.1,2.62-3.22,2.62-7.04c0-4.2-1.62-6.33-2.97-7.37
				c-1.43-1.1-2.83-1.26-2.97-1.28l-9.83,0v0.17l9.83,0c0.15,0.02,1.55,0.2,2.91,1.26l0,0c1.91,1.49,2.88,3.92,2.88,7.22
				c0,3-0.85,5.31-2.54,6.89c-1.26,1.18-2.53,1.47-2.58,1.48l-0.12,0.03L50.55,30.09z"/>
		</g>
	</g>
	<g>
		<g>
			<g>
				<polygon class="st2" points="27.04,14.51 20.54,14.51 20.54,9.76 27.04,9.76 27.04,10.45 21.24,10.45 21.24,13.81 27.04,13.81 
									"/>
			</g>
		</g>
		<g>
			<g>
				<polygon class="st0" points="20.84,30.36 21.06,20.05 26.91,20.07 26.91,19.37 20.38,19.35 20.14,30.36 				"/>
				<path class="st0" d="M21.09,30.62h-1.22l0.25-11.53l7.06,0.02l0,1.22l-5.86-0.02L21.09,30.62z M20.41,30.09h0.17l0.22-10.31
					l5.85,0.02l0-0.17l-6.02-0.02L20.41,30.09z"/>
			</g>
		</g>
		<g>
			<g>
				<polygon class="st1" points="27.04,15.67 19.38,15.67 19.38,8.6 27.04,8.6 27.04,11.61 22.39,11.61 22.39,12.66 27.04,12.66 
									"/>
			</g>
		</g>
		<g>
			<g>
				<polygon class="st0" points="16.51,30.36 16.71,4.35 27.03,4.35 27.03,3.65 16.03,3.65 15.81,30.36 				"/>
				<path class="st0" d="M16.77,30.62h-1.22l0.22-27.23h11.52v1.22H16.97L16.77,30.62z M16.08,30.09h0.17l0.21-26.01h10.31V3.92
					H16.29L16.08,30.09z"/>
			</g>
		</g>
	</g>
	<g>
		<g>
			<g>
				<path class="st0" d="M20.87,54.91c-0.28,0-0.55-0.04-0.82-0.13c-0.66-0.23-1.77-0.96-1.77-3.29h0.7c0,1.43,0.45,2.33,1.3,2.62
					c0.86,0.3,1.93-0.13,2.38-0.71l0.01-0.01c0.34-0.4,0.61-1.22,0.47-1.99c-0.13-0.72-0.56-1.29-1.29-1.7
					c-0.19-0.11-0.44-0.24-0.73-0.39c-2.34-1.22-7.21-3.75-7.16-7.94l0-0.02c0.04-2.93,0.82-5.13,2.32-6.53
					c1.29-1.2,3.07-1.75,5.3-1.63c3.08,0.17,5.37,1.8,6.62,4.69c0.93,2.15,0.95,4.23,0.95,4.31l-0.7,0c0,0,0,0,0,0l0,0
					c0-0.03-0.03-2.04-0.91-4.06c-1.16-2.66-3.18-4.09-6.01-4.25c-2.03-0.11-3.63,0.37-4.78,1.44c-1.36,1.27-2.06,3.3-2.1,6.03
					l0,0.02c-0.05,3.76,4.57,6.16,6.78,7.31c0.3,0.15,0.55,0.29,0.75,0.4c1.15,0.65,1.52,1.55,1.64,2.19
					c0.19,1.04-0.18,2.04-0.62,2.57C22.74,54.43,21.81,54.91,20.87,54.91z"/>
				<path class="st0" d="M20.87,55.17c-0.32,0-0.62-0.05-0.91-0.15c-0.73-0.25-1.95-1.04-1.95-3.54v-0.26h1.23v0.26
					c0,0.91,0.19,2.06,1.12,2.38c0.74,0.25,1.7-0.13,2.09-0.63l0.01-0.02c0.3-0.35,0.54-1.09,0.42-1.78
					c-0.11-0.64-0.51-1.15-1.16-1.52c-0.19-0.11-0.44-0.23-0.72-0.38c-2.39-1.24-7.36-3.82-7.3-8.18l0-0.02
					c0.04-3.01,0.85-5.27,2.4-6.72c1.35-1.26,3.19-1.83,5.49-1.7c3.19,0.18,5.56,1.86,6.85,4.85c0.95,2.2,0.98,4.33,0.98,4.42
					l0,0.26l-1.23,0.01l0-0.26c0-0.02-0.03-1.99-0.88-3.96c-1.11-2.56-3.06-3.94-5.78-4.09c-1.95-0.11-3.49,0.35-4.58,1.37
					c-1.3,1.22-1.98,3.18-2.01,5.84l0,0.02c-0.05,3.6,4.47,5.95,6.64,7.07c0.3,0.16,0.56,0.29,0.76,0.4
					c1.23,0.7,1.64,1.68,1.77,2.37c0.2,1.12-0.2,2.21-0.68,2.78C22.86,54.7,21.84,55.17,20.87,55.17z M18.55,51.75
					c0.08,1.96,1.02,2.58,1.59,2.78c0.23,0.08,0.48,0.12,0.74,0.12c0.8,0,1.68-0.4,2.13-0.97c0.41-0.49,0.74-1.4,0.57-2.36
					c-0.11-0.59-0.45-1.41-1.51-2.01c-0.19-0.11-0.45-0.24-0.74-0.39c-2.27-1.18-6.98-3.63-6.93-7.55l0-0.02
					c0.04-2.81,0.77-4.9,2.18-6.22c1.2-1.12,2.87-1.63,4.97-1.51c2.94,0.17,5.04,1.65,6.24,4.41c0.71,1.63,0.88,3.28,0.92,3.9
					l0.18,0c-0.03-0.62-0.19-2.26-0.92-3.95c-1.21-2.8-3.42-4.37-6.39-4.53c-2.15-0.12-3.87,0.4-5.1,1.56
					c-1.45,1.35-2.2,3.49-2.24,6.35l0,0.02c-0.05,4.03,4.72,6.51,7.02,7.7c0.29,0.15,0.54,0.28,0.74,0.39
					c0.8,0.45,1.28,1.09,1.42,1.89c0.16,0.9-0.16,1.78-0.53,2.21l-0.01,0.01c-0.5,0.65-1.67,1.14-2.67,0.8
					c-0.64-0.22-1.4-0.85-1.47-2.61H18.55z"/>
			</g>
		</g>
		<g>
			<g>
				<path class="st0" d="M21.2,60.31c-1.98,0-3.96-0.79-5.43-2.16c-1.28-1.2-2.81-3.44-2.81-7.34h2.45c0,5.56,3.64,7.05,5.78,7.05
					c0.62,0,6.02-0.17,6.02-5.9c0-2.51-2.59-4.11-4.88-5.53c-2.08-1.28-3.88-2.39-3.88-4.25l0-0.07c0-0.69,0-1.84,0.85-2.69
					c0.56-0.56,1.36-0.85,2.36-0.85c2.3,0,3.33,1.81,3.33,3.61h-2.45c0-1.15-0.66-1.15-0.88-1.15c-0.37,0-0.57,0.07-0.63,0.13
					c-0.13,0.13-0.13,0.67-0.13,0.95l0,0.07c0,0.08,0.12,0.32,0.56,0.7c0.53,0.45,1.32,0.94,2.16,1.46
					c2.55,1.58,6.05,3.73,6.05,7.62c0,3.56-1.64,5.55-3.02,6.6C25.17,59.67,23.19,60.31,21.2,60.31z"/>
			</g>
		</g>
	</g>
	<g>
		<g>
			<g>
				<rect x="51.04" y="33.66" class="st0" width="0.7" height="26.77"/>
				<path class="st0" d="M52,60.69h-1.23V33.4H52V60.69z M51.3,60.17h0.17V33.93H51.3V60.17z"/>
			</g>
		</g>
		<g>
			<g>
				<rect x="33.49" y="33.66" class="st0" width="0.7" height="26.77"/>
				<path class="st0" d="M34.45,60.69h-1.23V33.4h1.23V60.69z M33.75,60.17h0.17V33.93h-0.17V60.17z"/>
			</g>
		</g>
		<g>
			<g>
				<polygon class="st0" points="47.6,46.11 37.4,46.11 37.4,33.66 40.44,33.66 40.44,43.07 44.57,43.07 44.57,33.66 47.6,33.66 
									"/>
			</g>
		</g>
		<g>
			<g>
				<polygon class="st1" points="47.6,60.43 44.57,60.43 44.57,52.46 40.44,52.46 40.44,60.43 37.4,60.43 37.4,49.42 47.6,49.42 
									"/>
			</g>
		</g>
	</g>
</g>
</svg>
